# xmcd
#
# Track frame offsets:
#	150
#	20235
#	36577
#	52417
#	66440
#	84122
#	103275
#	118127
#	135675
#	149195
#	164007
#	184720
#	203015
#	218832
#
# Disc length: 3114 seconds
#
# Revision: 0
# Processed by: cddbd v1.5PL3 Copyright (c) Steve Scherf et al.
# Submitted via: dBpowerAMP V4.0
#
DISCID=e90c280e
DTITLE=The Blues Rats - No Rules
DYEAR=1900
DGENRE=Blues
TTITLE0=Can't get enough of the blues
TTITLE1=Don't need no clothes
TTITLE2=Daddy's son
TTITLE3=Promises
TTITLE4=I'm your man
TTITLE5=Election day (erection day for the chinese)
TTITLE6=Ain't got time for you
TTITLE7=Can't take no more goodbyes
TTITLE8=Don't move too fast
TTITLE9=Bad weather's gonna come
TTITLE10=Howl at the moon
TTITLE11=Shoe shine Willy
TTITLE12=One way out
TTITLE13=Won't you come my way
EXTD=
EXTT0=
EXTT1=
EXTT2=
EXTT3=
EXTT4=
EXTT5=
EXTT6=
EXTT7=
EXTT8=
EXTT9=
EXTT10=
EXTT11=
EXTT12=
EXTT13=
PLAYORDER=
